# xmcd CD database file
#
# Track frame offsets:
#	150
#	21939
#	59985
#	80688
#	113911
#	141644
#	171799
#	198359
#	227453
#	246114
#	274541
#
# Disc length: 3938 seconds
#
# Revision: 1
# Processed by: cddbd v1.5.2PL0 Copyright (c) Steve Scherf et al.
# Submitted via: CDex 1.70beta2
#
DISCID=9f0f600b
DTITLE=Steve Herberman Trio - Ideals
DYEAR=2008
DGENRE=Jazz
TTITLE0=This is New (Will/Gershwin)
TTITLE1=Let Go (Herberman)
TTITLE2=Will You Still Be Mine? (Adair/Dennis)
TTITLE3=Delilah (V. Young)
TTITLE4=Ideals (Herberman)
TTITLE5=She's For Me (Herberman)
TTITLE6=Soul Eyes (Waldron)
TTITLE7=Soon (Gershwin)
TTITLE8=I Want To Be Happy (Youmans)
TTITLE9=Someone To Light Up My Life (Jobim)
TTITLE10=Upbeat (Herberman)
EXTD=YEAR: 2008
EXTT0=
EXTT1=
EXTT2=
EXTT3=
EXTT4=
EXTT5=
EXTT6=
EXTT7=
EXTT8=
EXTT9=
EXTT10=
PLAYORDER=
